<?xml version="1.0" encoding="UTF-8" standalone="no"?>
<!-- Created with Inkscape (http://www.inkscape.org/) -->

<svg
   xmlns:dc="http://purl.org/dc/elements/1.1/"
   xmlns:cc="http://creativecommons.org/ns#"
   xmlns:rdf="http://www.w3.org/1999/02/22-rdf-syntax-ns#"
   xmlns:svg="http://www.w3.org/2000/svg"
   xmlns="http://www.w3.org/2000/svg"
   xmlns:sodipodi="http://sodipodi.sourceforge.net/DTD/sodipodi-0.dtd"
   xmlns:inkscape="http://www.inkscape.org/namespaces/inkscape"
   width="210mm"
   height="297mm"
   viewBox="0 0 210 297"
   version="1.1"
   id="svg8"
   inkscape:version="0.92.2 5c3e80d, 2017-08-06"
   sodipodi:docname="resume_page2.svg">
  <defs
     id="defs2">
    <clipPath
       clipPathUnits="userSpaceOnUse"
       id="clipPath91">
      <path
         style="fill:#d40000;fill-opacity:1;stroke:none;stroke-width:1.69553828;stroke-miterlimit:4;stroke-dasharray:none;stroke-opacity:1"
         id="path93"
         sodipodi:type="arc"
         sodipodi:cx="18.729467"
         sodipodi:cy="18.233564"
         sodipodi:rx="84.316315"
         sodipodi:ry="84.316315"
         sodipodi:start="0"
         sodipodi:end="6.1423547"
         sodipodi:open="true"
         d="M 103.04578,18.233564 A 84.316315,84.316315 0 0 1 21.697434,102.49763 84.316315,84.316315 0 0 1 -65.3779,24.165818 84.316315,84.316315 0 0 1 9.8402789,-65.612862 84.316315,84.316315 0 0 1 102.21103,6.3984587" />
    </clipPath>
  </defs>
  <sodipodi:namedview
     id="base"
     pagecolor="#ffffff"
     bordercolor="#666666"
     borderopacity="1.0"
     inkscape:pageopacity="0.0"
     inkscape:pageshadow="2"
     inkscape:zoom="0.71"
     inkscape:cx="499.52492"
     inkscape:cy="742.56773"
     inkscape:document-units="mm"
     inkscape:current-layer="g139"
     showgrid="false"
     inkscape:window-width="1440"
     inkscape:window-height="856"
     inkscape:window-x="0"
     inkscape:window-y="-22"
     inkscape:window-maximized="0"
     showguides="false" />
  <metadata
     id="metadata5">
    <rdf:RDF>
      <cc:Work
         rdf:about="">
        <dc:format>image/svg+xml</dc:format>
        <dc:type
           rdf:resource="http://purl.org/dc/dcmitype/StillImage" />
        <dc:title />
      </cc:Work>
    </rdf:RDF>
  </metadata>
  <g
     inkscape:label="Layer 1"
     inkscape:groupmode="layer"
     id="layer1">
    <text
       xml:space="preserve"
       style="font-style:normal;font-variant:normal;font-weight:500;font-stretch:normal;font-size:10.58333302px;line-height:125%;font-family:Montserrat;-inkscape-font-specification:'Montserrat Medium';letter-spacing:0px;word-spacing:0px;fill:#000000;fill-opacity:1;stroke:none;stroke-width:0.26458332px;stroke-linecap:butt;stroke-linejoin:miter;stroke-opacity:1;"
       x="133.40962"
       y="32.044014"
       id="text118"><tspan
         sodipodi:role="line"
         id="tspan116"
         x="133.40962"
         y="41.771088"
         style="stroke-width:0.26458332px;-inkscape-font-specification:'Montserrat Medium';font-family:Montserrat;font-weight:500;font-style:normal;font-stretch:normal;font-variant:normal;fill:#000000;" /></text>
    <text
       xml:space="preserve"
       style="font-style:normal;font-variant:normal;font-weight:300;font-stretch:normal;font-size:10.58333302px;line-height:125%;font-family:Montserrat;-inkscape-font-specification:'Montserrat Light';letter-spacing:0px;word-spacing:0px;fill:#000000;fill-opacity:1;stroke:none;stroke-width:0.26458332px;stroke-linecap:butt;stroke-linejoin:miter;stroke-opacity:1"
       x="147.94307"
       y="180.73239"
       id="text1005"><tspan
         sodipodi:role="line"
         id="tspan1003"
         x="147.94307"
         y="190.45946"
         style="stroke-width:0.26458332px" /></text>
    <flowRoot
       xml:space="preserve"
       id="flowRoot1011"
       style="fill:black;stroke:none;stroke-opacity:1;stroke-width:1px;stroke-linejoin:miter;stroke-linecap:butt;fill-opacity:1;font-family:Montserrat;font-style:normal;font-weight:300;font-size:40px;line-height:125%;letter-spacing:0px;word-spacing:0px;-inkscape-font-specification:'Montserrat Light';font-stretch:normal;font-variant:normal"><flowRegion
         id="flowRegion1013"><rect
           id="rect1015"
           width="260.62674"
           height="86.950722"
           x="35.147919"
           y="663.73798" /></flowRegion><flowPara
         id="flowPara1017" /></flowRoot>    <g
       id="g139"
       transform="translate(-0.37265258,-248.93193)">
      <rect
         style="fill:#d40000;fill-opacity:1;stroke:none;stroke-width:1.3367945;stroke-miterlimit:4;stroke-dasharray:none;stroke-opacity:1"
         id="rect183"
         width="29.066902"
         height="11.179577"
         x="10"
         y="259.39935" />
      <text
         id="text187"
         y="268.67841"
         x="10.434273"
         style="font-style:normal;font-variant:normal;font-weight:300;font-stretch:normal;font-size:10.58333302px;line-height:125%;font-family:Montserrat;-inkscape-font-specification:'Montserrat Light';letter-spacing:0px;word-spacing:0px;fill:#ffffff;fill-opacity:1;stroke:none;stroke-width:0.26458332px;stroke-linecap:butt;stroke-linejoin:miter;stroke-opacity:1"
         xml:space="preserve"><tspan
           style="font-style:normal;font-variant:normal;font-weight:300;font-stretch:normal;font-family:Montserrat;-inkscape-font-specification:'Montserrat Light';fill:#ffffff;stroke-width:0.26458332px"
           y="268.67841"
           x="10.434273"
           id="tspan185"
           sodipodi:role="line">Talks.</tspan></text>
      <text
         xml:space="preserve"
         style="font-style:normal;font-variant:normal;font-weight:500;font-stretch:normal;font-size:7.05555534px;line-height:125%;font-family:Montserrat;-inkscape-font-specification:'Montserrat Medium';letter-spacing:0px;word-spacing:0px;fill:#000000;fill-opacity:1;stroke:none;stroke-width:0.26458332px;stroke-linecap:butt;stroke-linejoin:miter;stroke-opacity:1"
         x="10.001989"
         y="282.70499"
         id="text181"><tspan
           sodipodi:role="line"
           id="tspan171"
           x="10.001989"
           y="282.70499"
           style="font-style:normal;font-variant:normal;font-weight:500;font-stretch:normal;font-size:7.05555534px;font-family:Montserrat;-inkscape-font-specification:'Montserrat Medium';stroke-width:0.26458332px">Hackware v3.14159</tspan><tspan
           sodipodi:role="line"
           x="10.001989"
           y="291.52444"
           style="font-style:normal;font-variant:normal;font-weight:300;font-stretch:normal;font-size:5.29166651px;line-height:100%;font-family:Montserrat;-inkscape-font-specification:'Montserrat Light';stroke-width:0.26458332px"
           id="tspan188">ARMSat- a STM32 based nanosatellite project</tspan><tspan
           sodipodi:role="line"
           x="10.001989"
           y="300.34387"
           style="font-style:normal;font-variant:normal;font-weight:bold;font-stretch:normal;font-size:5.29166651px;line-height:100%;font-family:Montserrat;-inkscape-font-specification:'Montserrat Bold';stroke-width:0.26458332px;fill:#d40000"
           id="tspan551">8 June 2017</tspan><tspan
           sodipodi:role="line"
           x="10.001989"
           y="309.16333"
           style="font-style:normal;font-variant:normal;font-weight:500;font-stretch:normal;font-size:7.05555534px;font-family:Montserrat;-inkscape-font-specification:'Montserrat Medium';stroke-width:0.26458332px"
           id="tspan179" /></text>
      <text
         id="text561"
         y="311.77188"
         x="10.001989"
         style="font-style:normal;font-variant:normal;font-weight:500;font-stretch:normal;font-size:7.05555534px;line-height:125%;font-family:Montserrat;-inkscape-font-specification:'Montserrat Medium';letter-spacing:0px;word-spacing:0px;fill:#000000;fill-opacity:1;stroke:none;stroke-width:0.26458332px;stroke-linecap:butt;stroke-linejoin:miter;stroke-opacity:1"
         xml:space="preserve"><tspan
           style="font-style:normal;font-variant:normal;font-weight:500;font-stretch:normal;font-size:7.05555534px;font-family:Montserrat;-inkscape-font-specification:'Montserrat Medium';stroke-width:0.26458332px"
           y="311.77188"
           x="10.001989"
           id="tspan553"
           sodipodi:role="line">Hackware v2.3</tspan><tspan
           id="tspan555"
           style="font-style:normal;font-variant:normal;font-weight:300;font-stretch:normal;font-size:5.29166651px;line-height:100%;font-family:Montserrat;-inkscape-font-specification:'Montserrat Light';stroke-width:0.26458332px"
           y="320.59134"
           x="10.001989"
           sodipodi:role="line">PCB Assembly using a DIY solder reflow oven</tspan><tspan
           id="tspan557"
           style="font-style:normal;font-variant:normal;font-weight:bold;font-stretch:normal;font-size:5.29166651px;line-height:100%;font-family:Montserrat;-inkscape-font-specification:'Montserrat Bold';fill:#d40000;stroke-width:0.26458332px"
           y="329.41077"
           x="10.001989"
           sodipodi:role="line">6 October 2016</tspan><tspan
           id="tspan559"
           style="font-style:normal;font-variant:normal;font-weight:500;font-stretch:normal;font-size:7.05555534px;font-family:Montserrat;-inkscape-font-specification:'Montserrat Medium';stroke-width:0.26458332px"
           y="338.23022"
           x="10.001989"
           sodipodi:role="line" /></text>
      <text
         xml:space="preserve"
         style="font-style:normal;font-variant:normal;font-weight:500;font-stretch:normal;font-size:7.05555534px;line-height:125%;font-family:Montserrat;-inkscape-font-specification:'Montserrat Medium';letter-spacing:0px;word-spacing:0px;fill:#000000;fill-opacity:1;stroke:none;stroke-width:0.26458332px;stroke-linecap:butt;stroke-linejoin:miter;stroke-opacity:1"
         x="10.001989"
         y="341.21143"
         id="text571"><tspan
           sodipodi:role="line"
           id="tspan563"
           x="10.001989"
           y="341.21143"
           style="font-style:normal;font-variant:normal;font-weight:500;font-stretch:normal;font-size:7.05555534px;font-family:Montserrat;-inkscape-font-specification:'Montserrat Medium';stroke-width:0.26458332px">Hackware v1.9</tspan><tspan
           sodipodi:role="line"
           x="10.001989"
           y="350.03088"
           style="font-style:normal;font-variant:normal;font-weight:300;font-stretch:normal;font-size:5.29166651px;line-height:100%;font-family:Montserrat;-inkscape-font-specification:'Montserrat Light';stroke-width:0.26458332px"
           id="tspan565">Intel Edison Flight Controller</tspan><tspan
           sodipodi:role="line"
           x="10.001989"
           y="358.85031"
           style="font-style:normal;font-variant:normal;font-weight:bold;font-stretch:normal;font-size:5.29166651px;line-height:100%;font-family:Montserrat;-inkscape-font-specification:'Montserrat Bold';fill:#d40000;stroke-width:0.26458332px"
           id="tspan567">30 June 2016</tspan><tspan
           sodipodi:role="line"
           x="10.001989"
           y="367.66977"
           style="font-style:normal;font-variant:normal;font-weight:500;font-stretch:normal;font-size:7.05555534px;font-family:Montserrat;-inkscape-font-specification:'Montserrat Medium';stroke-width:0.26458332px"
           id="tspan569" /></text>
      <rect
         y="366.7233"
         x="10.372653"
         height="11.179577"
         width="67.077469"
         id="rect573"
         style="fill:#d40000;fill-opacity:1;stroke:none;stroke-width:2.03073668;stroke-miterlimit:4;stroke-dasharray:none;stroke-opacity:1" />
      <text
         xml:space="preserve"
         style="font-style:normal;font-variant:normal;font-weight:300;font-stretch:normal;font-size:10.58333302px;line-height:125%;font-family:Montserrat;-inkscape-font-specification:'Montserrat Light';letter-spacing:0px;word-spacing:0px;fill:#ffffff;fill-opacity:1;stroke:none;stroke-width:0.26458332px;stroke-linecap:butt;stroke-linejoin:miter;stroke-opacity:1"
         x="10.806926"
         y="376.00235"
         id="text577"><tspan
           sodipodi:role="line"
           id="tspan575"
           x="10.806926"
           y="376.00235"
           style="font-style:normal;font-variant:normal;font-weight:300;font-stretch:normal;font-family:Montserrat;-inkscape-font-specification:'Montserrat Light';fill:#ffffff;stroke-width:0.26458332px">Contact Me.</tspan></text>
      <g
         id="g1237"
         transform="matrix(0.11138171,0,0,0.11138171,9.5246523,420.89378)">
        <g
           id="g1181">
          <path
             d="m 90,43.841 c 0,24.213 -19.779,43.841 -44.182,43.841 -7.747,0 -15.025,-1.98 -21.357,-5.455 L 0,90 7.975,66.478 C 3.952,59.872 1.635,52.124 1.635,43.841 1.635,19.628 21.416,0 45.818,0 70.223,0 90,19.628 90,43.841 Z M 45.818,6.982 c -20.484,0 -37.146,16.535 -37.146,36.859 0,8.065 2.629,15.534 7.076,21.61 L 11.107,79.14 25.382,74.603 C 31.247,78.454 38.273,80.7 45.819,80.7 66.3,80.7 82.965,64.167 82.965,43.843 82.965,23.519 66.301,6.982 45.818,6.982 Z m 22.311,46.956 c -0.273,-0.447 -0.994,-0.717 -2.076,-1.254 -1.084,-0.537 -6.41,-3.138 -7.4,-3.495 -0.993,-0.358 -1.717,-0.538 -2.438,0.537 -0.721,1.076 -2.797,3.495 -3.43,4.212 -0.632,0.719 -1.263,0.809 -2.347,0.271 -1.082,-0.537 -4.571,-1.673 -8.708,-5.333 -3.219,-2.848 -5.393,-6.364 -6.025,-7.441 -0.631,-1.075 -0.066,-1.656 0.475,-2.191 0.488,-0.482 1.084,-1.255 1.625,-1.882 0.543,-0.628 0.723,-1.075 1.082,-1.793 0.363,-0.717 0.182,-1.344 -0.09,-1.883 -0.27,-0.537 -2.438,-5.825 -3.34,-7.977 -0.902,-2.15 -1.803,-1.792 -2.436,-1.792 -0.631,0 -1.354,-0.09 -2.076,-0.09 -0.722,0 -1.896,0.269 -2.889,1.344 -0.992,1.076 -3.789,3.676 -3.789,8.963 0,5.288 3.879,10.397 4.422,11.113 0.541,0.716 7.49,11.92 18.5,16.223 11.011,4.301 11.011,2.866 12.997,2.686 1.984,-0.179 6.406,-2.599 7.312,-5.107 0.9,-2.512 0.9,-4.663 0.631,-5.111 z"
             id="WhatsApp"
             inkscape:connector-curvature="0" />
        </g>
        <g
           id="g1183" />
        <g
           id="g1185" />
        <g
           id="g1187" />
        <g
           id="g1189" />
        <g
           id="g1191" />
        <g
           id="g1193" />
        <g
           id="g1195" />
        <g
           id="g1197" />
        <g
           id="g1199" />
        <g
           id="g1201" />
        <g
           id="g1203" />
        <g
           id="g1205" />
        <g
           id="g1207" />
        <g
           id="g1209" />
        <g
           id="g1211" />
      </g>
      <g
         id="g1379"
         transform="matrix(0.7326697,0,0,0.7326697,2.7616827,101.84383)">
        <g
           transform="matrix(0.16737005,0,0,0.16737005,8.6039789,397.41502)"
           id="g1119">
          <g
             id="g1063">
            <path
               inkscape:connector-curvature="0"
               id="Github__x28_alt_x29_"
               d="m 65.709,10.5 c 1.17,2.657 1.928,7.07 0.797,10.301 4.625,3.949 6.215,13.549 3.982,21.394 6.592,0.503 14.444,-0.242 19.512,1.781 -4.738,-0.609 -11.209,-1.804 -17.32,-1.388 -1.158,0.079 -2.873,-0.044 -2.789,1.585 7.074,0.555 14.104,1.16 19.912,2.973 -5.761,-0.941 -12.754,-2.375 -19.912,-2.574 -2.957,5.835 -8.908,8.703 -17.123,9.307 0.883,1.922 2.574,2.653 2.987,5.744 0.616,4.618 -0.964,11.381 0.595,14.459 0.748,1.475 1.967,1.514 2.789,2.775 -2.012,2.381 -7,-0.268 -7.568,-2.775 -0.973,-4.295 1.482,-10.953 -1.192,-13.865 0.188,4.685 -1.108,11.264 0.199,15.449 0.515,1.646 2.002,2.281 1.593,3.766 -9.352,0.949 -5.443,-12.104 -6.972,-19.81 -1.411,0.101 -0.791,2.113 -0.796,2.972 -0.04,7.524 1.54,17.844 -6.57,16.838 -0.237,-1.582 1.088,-2.119 1.593,-3.563 1.479,-4.233 -0.277,-10.542 0.401,-15.651 -3.095,2.334 0.325,10.48 -1.593,14.657 -1.105,2.404 -4.666,3.45 -7.367,2.377 0.352,-1.79 2.2,-1.501 2.984,-3.169 1.096,-2.324 0.008,-5.674 0.399,-9.111 -5.729,1.144 -10.173,-0.166 -12.348,-3.764 -0.973,-1.615 -1.214,-3.52 -2.39,-4.951 -1.17,-1.432 -3.04,-1.625 -3.582,-3.563 7.095,-1.708 7.367,7.302 13.739,7.524 1.954,0.071 2.97,-0.563 4.778,-0.988 0.506,-2.272 1.589,-3.967 3.186,-5.153 C 29.704,52.992 23.156,50.523 20.111,44.573 12.903,44.927 6.307,45.89 0.198,47.344 5.743,45.33 12.582,44.608 19.913,44.371 19.481,41.775 15.694,42.489 13.343,42.589 8.973,42.781 3.473,43.324 0,43.976 5.034,42.181 12.098,42.405 18.918,42.391 16.832,35.851 17.555,25.462 22.104,21.593 20.815,18.344 21.215,13.03 22.9,10.5 c 5.079,0.228 8.159,2.443 11.35,4.557 3.957,-1.125 8.118,-1.685 13.54,-1.387 2.28,0.126 4.651,1.151 6.369,0.989 1.685,-0.158 3.542,-2.049 5.178,-2.771 2.131,-0.941 3.934,-1.3 6.372,-1.388 z" />
          </g>
          <g
             id="g1065" />
          <g
             id="g1067" />
          <g
             id="g1069" />
          <g
             id="g1071" />
          <g
             id="g1073" />
          <g
             id="g1075" />
          <g
             id="g1077" />
          <g
             id="g1079" />
          <g
             id="g1081" />
          <g
             id="g1083" />
          <g
             id="g1085" />
          <g
             id="g1087" />
          <g
             id="g1089" />
          <g
             id="g1091" />
          <g
             id="g1093" />
        </g>
        <g
           transform="matrix(0.03205553,0,0,0.03205553,8.9153959,411.14267)"
           id="g1178">
          <g
             id="g1122">
            <path
               inkscape:connector-curvature="0"
               id="Twitter__x28_alt_x29_"
               d="m 381.384,198.639 c 24.157,-1.993 40.543,-12.975 46.849,-27.876 -8.714,5.353 -35.764,11.189 -50.703,5.631 -0.732,-3.51 -1.55,-6.844 -2.353,-9.854 -11.383,-41.798 -50.357,-75.472 -91.194,-71.404 3.304,-1.334 6.655,-2.576 9.996,-3.691 4.495,-1.61 30.868,-5.901 26.715,-15.21 -3.5,-8.188 -35.722,6.188 -41.789,8.067 8.009,-3.012 21.254,-8.193 22.673,-17.396 -12.27,1.683 -24.315,7.484 -33.622,15.919 3.36,-3.617 5.909,-8.025 6.45,-12.769 C 241.68,90.963 222.563,133.113 207.092,174 194.944,162.227 184.177,152.956 174.518,147.808 147.421,133.277 115.022,118.116 64.163,99.236 c -1.561,16.827 8.322,39.201 36.8,54.08 -6.17,-0.826 -17.453,1.017 -26.477,3.178 3.675,19.277 15.677,35.159 48.169,42.839 -14.849,0.98 -22.523,4.359 -29.478,11.642 6.763,13.407 23.266,29.186 52.953,25.947 -33.006,14.226 -13.458,40.571 13.399,36.642 C 113.713,320.887 41.479,317.409 0,277.828 108.299,425.4 343.716,365.102 378.799,222.962 c 26.285,0.224 41.737,-9.105 51.318,-19.39 -15.144,2.57 -37.094,-0.086 -48.733,-4.933 z" />
          </g>
          <g
             id="g1124" />
          <g
             id="g1126" />
          <g
             id="g1128" />
          <g
             id="g1130" />
          <g
             id="g1132" />
          <g
             id="g1134" />
          <g
             id="g1136" />
          <g
             id="g1138" />
          <g
             id="g1140" />
          <g
             id="g1142" />
          <g
             id="g1144" />
          <g
             id="g1146" />
          <g
             id="g1148" />
          <g
             id="g1150" />
          <g
             id="g1152" />
        </g>
        <g
           style="fill:#000000"
           transform="matrix(0.11138171,0,0,0.11138171,10.911726,385.14823)"
           id="g1296">
          <g
             style="fill:#000000"
             id="g1240">
            <path
               style="fill:#000000"
               inkscape:connector-curvature="0"
               id="Facebook__x28_alt_x29_"
               d="M 90,15.001 C 90,7.119 82.884,0 75,0 H 15 C 7.116,0 0,7.119 0,15.001 V 74.999 C 0,82.881 7.116,90 15.001,90 H 45 V 56 H 34 V 41 H 45 V 35.156 C 45,25.077 52.568,16 61.875,16 H 74 V 31 H 61.875 C 60.548,31 59,32.611 59,35.024 V 41 H 74 V 56 H 59 v 34 h 16 c 7.884,0 15,-7.119 15,-15.001 z" />
          </g>
          <g
             style="fill:#000000"
             id="g1242" />
          <g
             style="fill:#000000"
             id="g1244" />
          <g
             style="fill:#000000"
             id="g1246" />
          <g
             style="fill:#000000"
             id="g1248" />
          <g
             style="fill:#000000"
             id="g1250" />
          <g
             style="fill:#000000"
             id="g1252" />
          <g
             style="fill:#000000"
             id="g1254" />
          <g
             style="fill:#000000"
             id="g1256" />
          <g
             style="fill:#000000"
             id="g1258" />
          <g
             style="fill:#000000"
             id="g1260" />
          <g
             style="fill:#000000"
             id="g1262" />
          <g
             style="fill:#000000"
             id="g1264" />
          <g
             style="fill:#000000"
             id="g1266" />
          <g
             style="fill:#000000"
             id="g1268" />
          <g
             style="fill:#000000"
             id="g1270" />
        </g>
        <text
           id="text1300"
           y="393.14438"
           x="28.555883"
           style="font-style:normal;font-variant:normal;font-weight:bold;font-stretch:normal;font-size:7.22244501px;line-height:125%;font-family:Montserrat;-inkscape-font-specification:'Montserrat Bold';letter-spacing:0px;word-spacing:0px;fill:#000000;fill-opacity:1;stroke:none;stroke-width:0.26458332px;stroke-linecap:butt;stroke-linejoin:miter;stroke-opacity:1"
           xml:space="preserve"><tspan
             style="font-style:normal;font-variant:normal;font-weight:bold;font-stretch:normal;font-size:7.22244501px;font-family:Montserrat;-inkscape-font-specification:'Montserrat Bold';fill:#000000;stroke-width:0.26458332px"
             y="393.14438"
             x="28.555883"
             id="tspan1298"
             sodipodi:role="line">Facebook : https://www.facebook.com/solderneer</tspan></text>
        <text
           xml:space="preserve"
           style="font-style:normal;font-variant:normal;font-weight:bold;font-stretch:normal;font-size:7.22244501px;line-height:125%;font-family:Montserrat;-inkscape-font-specification:'Montserrat Bold';letter-spacing:0px;word-spacing:0px;fill:#000000;fill-opacity:1;stroke:none;stroke-width:0.26458332px;stroke-linecap:butt;stroke-linejoin:miter;stroke-opacity:1"
           x="27.893263"
           y="407.17093"
           id="text1304"><tspan
             sodipodi:role="line"
             id="tspan1302"
             x="27.893263"
             y="407.17093"
             style="font-style:normal;font-variant:normal;font-weight:bold;font-stretch:normal;font-size:7.22244501px;font-family:Montserrat;-inkscape-font-specification:'Montserrat Bold';fill:#000000;stroke-width:0.26458332px">Github : https://github.com/solderneer<tspan
   style="font-style:normal;font-variant:normal;font-weight:500;font-stretch:normal;font-size:7.22244501px;font-family:Montserrat;-inkscape-font-specification:'Montserrat Medium';fill:#d40000"
   id="tspan1381"> </tspan><tspan
   style="font-size:7.22244501px;fill:#d40000"
   id="tspan1385">      </tspan></tspan></text>
        <text
           id="text1316"
           y="420.6088"
           x="28.42243"
           style="font-style:normal;font-variant:normal;font-weight:bold;font-stretch:normal;font-size:7.22244501px;line-height:125%;font-family:Montserrat;-inkscape-font-specification:'Montserrat Bold';letter-spacing:0px;word-spacing:0px;fill:#000000;fill-opacity:1;stroke:none;stroke-width:0.26458332px;stroke-linecap:butt;stroke-linejoin:miter;stroke-opacity:1"
           xml:space="preserve"><tspan
             style="font-style:normal;font-variant:normal;font-weight:bold;font-stretch:normal;font-size:7.22244501px;font-family:Montserrat;-inkscape-font-specification:'Montserrat Bold';fill:#000000;stroke-width:0.26458332px"
             y="420.6088"
             x="28.42243"
             id="tspan1314"
             sodipodi:role="line">Twitter : https://twitter.com/solderneer  </tspan></text>
        <text
           xml:space="preserve"
           style="font-style:normal;font-variant:normal;font-weight:bold;font-stretch:normal;font-size:7.22244501px;line-height:125%;font-family:Montserrat;-inkscape-font-specification:'Montserrat Bold';letter-spacing:0px;word-spacing:0px;fill:#000000;fill-opacity:1;stroke:none;stroke-width:0.26458332px;stroke-linecap:butt;stroke-linejoin:miter;stroke-opacity:1"
           x="28.42243"
           y="445.16556"
           id="text1391"><tspan
             sodipodi:role="line"
             id="tspan1389"
             x="28.42243"
             y="445.16556"
             style="font-style:normal;font-variant:normal;font-weight:bold;font-stretch:normal;font-size:7.22244501px;font-family:Montserrat;-inkscape-font-specification:'Montserrat Bold';fill:#000000;stroke-width:0.26458332px">+65 8143 8417</tspan></text>
        <g
           id="g1608"
           transform="matrix(0.02605884,0,0,0.02605884,10.071831,452.26191)">
          <g
             id="g1552">
            <path
               d="M 332.146,1.3 C 293.69,25.338 254.038,5.062 225.457,1.3 99.268,-15.326 59.152,131.895 151.094,190.921 c -23.671,12.258 -22.124,74.668 3.239,83.559 -59.739,6.833 -70.816,91.027 -38.793,125.349 38.965,41.752 158.828,38.989 193.976,0 24.539,-27.237 27.946,-83.372 6.454,-109.266 -19.593,-23.63 -117.904,-27.2 -116.374,-64.284 1.064,-25.921 36.613,-21.835 58.194,-32.143 40.589,-19.408 64.434,-77.478 48.491,-122.135 9.049,-1.701 16.797,-4.721 25.864,-6.422 V 1.3 Z m -155.18,134.995 c -47.308,-103.065 108.771,-95.673 61.428,0 -15.532,11.507 -46.092,12.651 -61.428,0 z m 87.284,202.471 c 4.191,46.223 -89.396,48.271 -100.219,16.087 -9.11,-27.116 2.231,-34.803 29.09,-41.789 30.422,-7.92 68.319,-5.213 71.129,25.702 z"
               id="Github"
               inkscape:connector-curvature="0" />
          </g>
          <g
             id="g1554" />
          <g
             id="g1556" />
          <g
             id="g1558" />
          <g
             id="g1560" />
          <g
             id="g1562" />
          <g
             id="g1564" />
          <g
             id="g1566" />
          <g
             id="g1568" />
          <g
             id="g1570" />
          <g
             id="g1572" />
          <g
             id="g1574" />
          <g
             id="g1576" />
          <g
             id="g1578" />
          <g
             id="g1580" />
          <g
             id="g1582" />
        </g>
        <text
           id="text1612"
           y="458.88837"
           x="28.42243"
           style="font-style:normal;font-variant:normal;font-weight:bold;font-stretch:normal;font-size:7.22244501px;line-height:125%;font-family:Montserrat;-inkscape-font-specification:'Montserrat Bold';letter-spacing:0px;word-spacing:0px;fill:#000000;fill-opacity:1;stroke:none;stroke-width:0.26458332px;stroke-linecap:butt;stroke-linejoin:miter;stroke-opacity:1"
           xml:space="preserve"><tspan
             style="font-style:normal;font-variant:normal;font-weight:bold;font-stretch:normal;font-size:7.22244501px;font-family:Montserrat;-inkscape-font-specification:'Montserrat Bold';fill:#000000;stroke-width:0.26458332px"
             y="458.88837"
             x="28.42243"
             id="tspan1610"
             sodipodi:role="line">sudhar393@gmail.com</tspan></text>
      </g>
    </g>
  </g>
</svg>
